<?xml version="1.0" standalone="no"?>
<!DOCTYPE svg PUBLIC "-//W3C//DTD SVG 20010904//EN"
 "http://www.w3.org/TR/2001/REC-SVG-20010904/DTD/svg10.dtd">
<svg version="1.0" xmlns="http://www.w3.org/2000/svg"
 width="100.000000pt" height="100.000000pt" viewBox="0 0 100.000000 100.000000"
 preserveAspectRatio="xMidYMid meet">

<g transform="translate(0.000000,100.000000) scale(0.100000,-0.100000)"
fill="#000000" stroke="none">
<path d="M854 769 c-10 -17 13 -36 27 -22 12 12 4 33 -11 33 -5 0 -12 -5 -16
-11z"/>
<path d="M295 710 c-58 -59 -58 -60 -40 -80 l18 -20 29 27 28 27 0 -107 c0
-118 10 -151 51 -173 35 -18 53 -18 88 1 35 17 43 34 50 104 7 60 28 84 55 62
13 -11 16 -35 16 -124 l0 -111 -28 27 -29 27 -18 -20 c-19 -21 -18 -22 43 -83
l62 -62 62 62 c61 61 62 62 43 83 l-18 20 -29 -27 -28 -27 0 113 c0 124 -11
159 -55 179 -34 16 -50 15 -84 -3 -35 -17 -43 -34 -50 -104 -7 -60 -28 -84
-55 -62 -13 11 -16 35 -16 119 l0 106 28 -27 29 -27 18 20 c18 20 18 21 -40
80 -33 33 -62 60 -65 60 -3 0 -32 -27 -65 -60z m120 -10 c33 -34 46 -53 39
-60 -7 -7 -19 0 -39 20 -16 16 -32 30 -37 30 -12 0 -10 -218 2 -240 6 -11 19
-24 30 -30 16 -9 25 -6 45 14 20 20 25 35 25 76 0 62 23 90 75 90 22 0 43 -8
55 -20 18 -18 20 -33 20 -155 0 -74 4 -135 8 -135 5 0 21 14 37 30 20 21 32
27 39 20 7 -7 -6 -27 -42 -63 l-52 -52 -52 52 c-36 36 -49 56 -42 63 7 7 19 1
39 -20 16 -16 32 -30 37 -30 12 0 10 228 -2 250 -6 11 -19 24 -30 30 -16 9
-25 6 -45 -14 -20 -20 -25 -35 -25 -76 0 -37 -5 -55 -20 -70 -27 -27 -83 -27
-110 0 -18 18 -20 33 -20 150 0 72 -4 130 -8 130 -5 0 -21 -14 -37 -30 -20
-20 -32 -27 -39 -20 -7 7 6 26 39 60 27 28 52 50 55 50 3 0 28 -22 55 -50z"/>
<path d="M114 719 c-10 -17 13 -36 27 -22 12 12 4 33 -11 33 -5 0 -12 -5 -16
-11z"/>
<path d="M518 653 c6 -2 18 -2 25 0 6 3 1 5 -13 5 -14 0 -19 -2 -12 -5z"/>
<path d="M568 653 c6 -2 18 -2 25 0 6 3 1 5 -13 5 -14 0 -19 -2 -12 -5z"/>
<path d="M628 633 c8 -3 22 -19 33 -37 10 -17 19 -26 19 -20 0 17 -40 64 -53
63 -8 0 -7 -3 1 -6z"/>
<path d="M293 545 c0 -27 2 -38 4 -22 2 15 2 37 0 50 -2 12 -4 0 -4 -28z"/>
<path d="M683 465 c0 -38 2 -53 4 -32 2 20 2 52 0 70 -2 17 -4 1 -4 -38z"/>
<path d="M295 440 c3 -20 17 -46 32 -60 20 -19 23 -19 9 -3 -10 12 -24 39 -32
60 l-15 38 6 -35z"/>
<path d="M387 338 c2 -5 19 -8 38 -8 19 0 36 3 38 8 3 4 -14 7 -38 7 -24 0
-41 -3 -38 -7z"/>
<path d="M234 139 c-10 -17 13 -36 27 -22 12 12 4 33 -11 33 -5 0 -12 -5 -16
-11z"/>
</g>
</svg>
